<svg width="1920" height="1080" viewBox="0 0 1920 1080" fill="none" xmlns="http://www.w3.org/2000/svg">
<g clip-path="url(#clip0_57_550)">
<path d="M1920 0H0V1080H1920V0Z" fill="#F9F9F9"/>
<g clip-path="url(#clip1_57_550)">
<path d="M294.244 199.198C293.607 199.189 292.978 199.286 292.395 199.495C291.229 199.913 290.323 200.701 289.623 201.582C286.822 205.106 286.029 210.617 284.883 215.576C284.31 218.055 283.715 220.369 283.063 221.981C282.411 223.593 281.689 224.182 281.68 224.185C281.676 224.186 281.686 224.245 281.319 224.077C280.953 223.909 280.3 223.461 279.485 222.616C277.856 220.927 275.601 217.723 272.8 212.696C272.501 212.16 272.002 211.765 271.412 211.598C270.822 211.43 270.19 211.503 269.654 211.802C269.389 211.95 269.156 212.148 268.967 212.386C268.779 212.624 268.639 212.897 268.556 213.189C268.473 213.481 268.448 213.787 268.483 214.088C268.518 214.39 268.612 214.682 268.76 214.947C271.662 220.154 274.014 223.605 276.157 225.827C277.229 226.938 278.255 227.759 279.393 228.281C280.531 228.802 281.869 228.968 283.051 228.601C285.416 227.867 286.5 225.814 287.35 223.715C288.199 221.616 288.803 219.15 289.388 216.618C290.559 211.553 291.927 206.115 293.243 204.459C293.572 204.045 293.817 203.898 293.958 203.847C294.099 203.796 294.211 203.758 294.637 203.904C295.489 204.196 297.366 205.57 299.775 208.67C300.152 209.155 300.705 209.47 301.313 209.546C301.922 209.622 302.536 209.453 303.02 209.077C303.26 208.891 303.46 208.659 303.611 208.395C303.761 208.131 303.857 207.84 303.895 207.539C303.933 207.238 303.911 206.932 303.831 206.639C303.75 206.347 303.613 206.072 303.427 205.833C300.763 202.406 298.586 200.369 296.136 199.53C295.524 199.32 294.88 199.206 294.244 199.198Z" fill="url(#paint0_linear_57_550)"/>
<path d="M335.697 199.003C335.534 199.007 335.369 199.018 335.205 199.036C332.572 199.321 330.44 201.061 328.569 203.445C326.698 205.828 324.989 209.004 323.305 212.905L323.296 212.927L323.287 212.949C321.301 217.823 319.427 220.93 317.928 222.516C316.43 224.103 315.739 224.175 314.923 223.958C314.107 223.742 312.757 222.71 311.339 220.744C309.921 218.779 308.442 216.014 306.979 212.851C306.722 212.294 306.254 211.863 305.678 211.651C305.102 211.439 304.466 211.465 303.91 211.723C303.353 211.98 302.922 212.448 302.71 213.024C302.499 213.599 302.524 214.235 302.782 214.792C304.309 218.093 305.871 221.068 307.589 223.45C309.307 225.831 311.187 227.753 313.739 228.429C316.29 229.105 319.103 228.007 321.29 225.692C323.47 223.384 325.456 219.871 327.551 214.738C329.141 211.054 330.737 208.171 332.206 206.3C333.675 204.429 334.919 203.718 335.702 203.634C336.486 203.549 337.421 203.842 338.892 205.55C340.363 207.258 342.078 210.28 343.827 214.676L343.84 214.709L343.854 214.741C344.956 217.284 346.2 220.013 347.675 222.403C349.149 224.792 350.811 226.935 353.246 228.039C355.681 229.143 358.837 228.568 361.324 226.347C363.81 224.125 366.115 220.474 368.638 214.754C368.761 214.477 368.827 214.177 368.834 213.874C368.841 213.57 368.788 213.268 368.678 212.985C368.569 212.702 368.404 212.443 368.194 212.224C367.984 212.004 367.733 211.828 367.456 211.706C367.178 211.583 366.879 211.517 366.575 211.51C366.271 211.503 365.97 211.556 365.686 211.666C365.403 211.775 365.145 211.94 364.925 212.15C364.706 212.359 364.53 212.61 364.407 212.888C362.022 218.296 359.849 221.464 358.243 222.898C356.637 224.332 356.087 224.25 355.156 223.828C354.225 223.406 352.863 222.004 351.61 219.974C350.359 217.947 349.174 215.387 348.101 212.911C346.252 208.273 344.421 204.884 342.395 202.532C340.488 200.318 338.151 198.932 335.697 199.003Z" fill="url(#paint1_linear_57_550)"/>
<path d="M258.798 199.198C258.162 199.189 257.533 199.286 256.95 199.495C255.784 199.913 254.877 200.701 254.177 201.582C251.377 205.106 250.584 210.617 249.438 215.576C248.864 218.055 248.27 220.369 247.618 221.981C246.965 223.593 246.244 224.182 246.235 224.185C246.231 224.186 246.24 224.245 245.874 224.077C245.508 223.909 244.855 223.461 244.04 222.616C242.41 220.927 240.156 217.723 237.354 212.696C237.056 212.16 236.557 211.765 235.967 211.598C235.377 211.43 234.745 211.503 234.209 211.802C233.944 211.95 233.71 212.148 233.522 212.386C233.333 212.624 233.194 212.897 233.111 213.189C233.028 213.481 233.003 213.787 233.038 214.088C233.073 214.39 233.167 214.682 233.315 214.947C236.217 220.154 238.568 223.605 240.712 225.827C241.784 226.938 242.81 227.759 243.948 228.281C245.085 228.802 246.424 228.968 247.606 228.601C249.971 227.867 251.055 225.814 251.904 223.715C252.754 221.616 253.358 219.15 253.943 216.618C255.114 211.553 256.481 206.115 257.798 204.459C258.127 204.045 258.372 203.898 258.513 203.847C258.654 203.796 258.766 203.758 259.192 203.904C260.043 204.196 261.921 205.57 264.33 208.67C264.706 209.155 265.26 209.47 265.868 209.546C266.477 209.622 267.09 209.453 267.575 209.077C268.059 208.701 268.374 208.148 268.45 207.539C268.526 206.931 268.358 206.317 267.981 205.833C265.318 202.406 263.14 200.369 260.691 199.53C260.078 199.32 259.435 199.206 258.798 199.198Z" fill="url(#paint2_linear_57_550)"/>
</g>
<path d="M235.483 241.864C235.483 241.733 235.456 241.618 235.402 241.519C235.349 241.419 235.273 241.329 235.176 241.25C235.074 241.176 234.952 241.109 234.812 241.051C234.674 240.989 234.519 240.934 234.347 240.886C234.084 240.812 233.841 240.721 233.619 240.613C233.399 240.503 233.211 240.381 233.055 240.245C232.899 240.107 232.776 239.951 232.687 239.777C232.6 239.601 232.556 239.403 232.556 239.183C232.556 238.945 232.607 238.731 232.71 238.542C232.812 238.35 232.95 238.187 233.124 238.051C233.298 237.918 233.5 237.817 233.73 237.748C233.963 237.677 234.207 237.641 234.463 237.641C234.734 237.641 234.985 237.683 235.218 237.767C235.453 237.849 235.658 237.964 235.832 238.113C236.006 238.263 236.143 238.444 236.242 238.653C236.345 238.86 236.396 239.091 236.396 239.344H235.483C235.47 239.203 235.439 239.075 235.391 238.96C235.345 238.843 235.28 238.742 235.195 238.657C235.108 238.575 235.002 238.511 234.877 238.465C234.754 238.417 234.612 238.393 234.451 238.393C234.31 238.393 234.18 238.412 234.06 238.45C233.942 238.486 233.84 238.537 233.753 238.603C233.666 238.673 233.598 238.756 233.55 238.853C233.501 238.95 233.477 239.059 233.477 239.179C233.479 239.307 233.513 239.419 233.576 239.516C233.64 239.611 233.726 239.694 233.833 239.766C233.943 239.837 234.069 239.9 234.209 239.954C234.353 240.007 234.502 240.057 234.658 240.103C234.855 240.16 235.047 240.23 235.234 240.314C235.423 240.396 235.597 240.496 235.755 240.613C235.952 240.762 236.109 240.939 236.227 241.147C236.347 241.351 236.407 241.588 236.407 241.856C236.407 242.104 236.355 242.323 236.25 242.512C236.148 242.701 236.01 242.859 235.836 242.984C235.659 243.114 235.455 243.213 235.222 243.279C234.989 243.343 234.744 243.375 234.486 243.375C234.212 243.375 233.942 243.333 233.676 243.249C233.41 243.162 233.179 243.036 232.982 242.873C232.8 242.719 232.656 242.539 232.549 242.332C232.444 242.125 232.39 241.887 232.387 241.618H233.308C233.321 241.79 233.357 241.939 233.415 242.067C233.477 242.192 233.56 242.296 233.665 242.378C233.767 242.462 233.887 242.525 234.025 242.566C234.166 242.607 234.319 242.627 234.486 242.627C234.626 242.627 234.757 242.611 234.877 242.577C235 242.544 235.106 242.494 235.195 242.428C235.282 242.364 235.351 242.284 235.402 242.19C235.456 242.095 235.483 241.987 235.483 241.864ZM245.789 240.882C245.789 241.107 245.768 241.324 245.727 241.534C245.689 241.744 245.633 241.942 245.559 242.129C245.479 242.315 245.381 242.488 245.263 242.646C245.146 242.802 245.01 242.937 244.857 243.049C244.708 243.151 244.543 243.232 244.362 243.291C244.183 243.35 243.986 243.379 243.771 243.379C243.549 243.379 243.344 243.348 243.157 243.287C242.973 243.223 242.808 243.136 242.663 243.026C242.514 242.914 242.384 242.778 242.271 242.619C242.161 242.461 242.069 242.287 241.995 242.098C241.924 241.916 241.87 241.723 241.834 241.519C241.798 241.312 241.78 241.099 241.78 240.882V240.145C241.78 239.918 241.8 239.698 241.838 239.486C241.876 239.273 241.934 239.073 242.01 238.883C242.085 238.702 242.175 238.536 242.283 238.385C242.393 238.231 242.522 238.098 242.67 237.986C242.813 237.876 242.976 237.792 243.157 237.733C243.341 237.671 243.543 237.641 243.763 237.641C243.986 237.641 244.19 237.671 244.377 237.733C244.564 237.794 244.731 237.88 244.88 237.99C245.028 238.1 245.157 238.229 245.267 238.377C245.377 238.525 245.469 238.688 245.543 238.864C245.625 239.054 245.686 239.257 245.727 239.474C245.768 239.689 245.789 239.913 245.789 240.145V240.882ZM244.86 240.138C244.858 239.997 244.849 239.859 244.834 239.724C244.821 239.588 244.798 239.459 244.765 239.336C244.726 239.195 244.675 239.068 244.611 238.953C244.55 238.835 244.474 238.735 244.385 238.653C244.306 238.582 244.215 238.525 244.112 238.485C244.01 238.444 243.894 238.423 243.763 238.423C243.638 238.423 243.526 238.444 243.426 238.485C243.326 238.523 243.239 238.577 243.165 238.646C243.076 238.73 243 238.831 242.939 238.949C242.877 239.064 242.83 239.193 242.797 239.336C242.766 239.459 242.743 239.589 242.728 239.727C242.715 239.863 242.709 240 242.709 240.138V240.882C242.709 241.017 242.715 241.152 242.728 241.285C242.741 241.418 242.762 241.545 242.793 241.668C242.826 241.806 242.871 241.935 242.927 242.056C242.986 242.173 243.056 242.273 243.138 242.355C243.217 242.432 243.308 242.493 243.411 242.539C243.515 242.582 243.636 242.604 243.771 242.604C243.901 242.604 244.019 242.582 244.124 242.539C244.231 242.495 244.323 242.437 244.4 242.362C244.49 242.278 244.564 242.178 244.623 242.063C244.684 241.946 244.733 241.817 244.768 241.676C244.799 241.553 244.821 241.425 244.834 241.292C244.849 241.157 244.858 241.02 244.86 240.882V240.138ZM254.794 240.924H252.431V243.302H251.503V237.717H255.132V238.481H252.431V240.165H254.794V240.924ZM264.828 238.481H263.105V243.302H262.189V238.481H260.478V237.717H264.828V238.481ZM282.639 241.864C282.639 241.733 282.612 241.618 282.559 241.519C282.505 241.419 282.43 241.329 282.332 241.25C282.23 241.176 282.109 241.109 281.968 241.051C281.83 240.989 281.675 240.934 281.504 240.886C281.241 240.812 280.998 240.721 280.775 240.613C280.555 240.503 280.367 240.381 280.211 240.245C280.055 240.107 279.933 239.951 279.843 239.777C279.756 239.601 279.713 239.403 279.713 239.183C279.713 238.945 279.764 238.731 279.866 238.542C279.968 238.35 280.106 238.187 280.28 238.051C280.454 237.918 280.656 237.817 280.886 237.748C281.119 237.677 281.363 237.641 281.619 237.641C281.89 237.641 282.142 237.683 282.375 237.767C282.61 237.849 282.814 237.964 282.988 238.113C283.162 238.263 283.299 238.444 283.399 238.653C283.501 238.86 283.552 239.091 283.552 239.344H282.639C282.626 239.203 282.596 239.075 282.547 238.96C282.501 238.843 282.436 238.742 282.352 238.657C282.265 238.575 282.159 238.511 282.033 238.465C281.91 238.417 281.769 238.393 281.607 238.393C281.467 238.393 281.336 238.412 281.216 238.45C281.099 238.486 280.996 238.537 280.909 238.603C280.822 238.673 280.755 238.756 280.706 238.853C280.657 238.95 280.633 239.059 280.633 239.179C280.636 239.307 280.669 239.419 280.733 239.516C280.797 239.611 280.883 239.694 280.99 239.766C281.1 239.837 281.225 239.9 281.366 239.954C281.509 240.007 281.659 240.057 281.815 240.103C282.012 240.16 282.203 240.23 282.39 240.314C282.579 240.396 282.753 240.496 282.912 240.613C283.109 240.762 283.266 240.939 283.383 241.147C283.504 241.351 283.564 241.588 283.564 241.856C283.564 242.104 283.511 242.323 283.406 242.512C283.304 242.701 283.166 242.859 282.992 242.984C282.816 243.114 282.611 243.213 282.378 243.279C282.146 243.343 281.9 243.375 281.642 243.375C281.368 243.375 281.099 243.333 280.833 243.249C280.567 243.162 280.335 243.036 280.138 242.873C279.957 242.719 279.812 242.539 279.705 242.332C279.6 242.125 279.546 241.887 279.544 241.618H280.464C280.477 241.79 280.513 241.939 280.572 242.067C280.633 242.192 280.716 242.296 280.821 242.378C280.923 242.462 281.044 242.525 281.182 242.566C281.322 242.607 281.476 242.627 281.642 242.627C281.783 242.627 281.913 242.611 282.033 242.577C282.156 242.544 282.262 242.494 282.352 242.428C282.439 242.364 282.508 242.284 282.559 242.19C282.612 242.095 282.639 241.987 282.639 241.864ZM292.443 240.798H290.134V242.543H292.83V243.302H289.209V237.717H292.811V238.481H290.134V240.053H292.443V240.798ZM300.466 241.135H299.523V243.302H298.602V237.717H300.374C300.663 237.72 300.929 237.757 301.172 237.829C301.415 237.9 301.625 238.005 301.801 238.143C301.975 238.284 302.11 238.459 302.208 238.669C302.305 238.876 302.353 239.119 302.353 239.397C302.353 239.589 302.328 239.763 302.277 239.919C302.228 240.075 302.159 240.216 302.07 240.341C301.98 240.466 301.873 240.576 301.747 240.671C301.622 240.766 301.483 240.847 301.329 240.916L302.522 243.252V243.302H301.536L300.466 241.135ZM299.523 240.383H300.386C300.549 240.381 300.696 240.356 300.827 240.31C300.96 240.262 301.072 240.193 301.164 240.103C301.246 240.027 301.31 239.932 301.356 239.819C301.402 239.707 301.425 239.579 301.425 239.436C301.425 239.275 301.4 239.134 301.348 239.014C301.3 238.891 301.227 238.789 301.13 238.707C301.04 238.63 300.932 238.573 300.804 238.534C300.676 238.494 300.533 238.472 300.374 238.469H299.523V240.383ZM309.353 243.302L307.634 237.717H308.643L309.706 241.584L309.798 241.918L309.894 241.58L310.964 237.717H311.969L310.25 243.302H309.353ZM320.736 240.798H318.427V242.543H321.124V243.302H317.503V237.717H321.105V238.481H318.427V240.053H320.736V240.798ZM326.842 243.302V237.717H328.223C328.463 237.717 328.69 237.746 328.902 237.802C329.114 237.856 329.307 237.931 329.481 238.028C329.67 238.128 329.838 238.253 329.984 238.404C330.132 238.555 330.256 238.724 330.356 238.91C330.458 239.105 330.537 239.318 330.594 239.551C330.65 239.784 330.678 240.032 330.678 240.295V240.732C330.678 240.985 330.651 241.226 330.597 241.453C330.546 241.678 330.472 241.884 330.375 242.071C330.28 242.253 330.165 242.417 330.03 242.566C329.897 242.714 329.748 242.841 329.585 242.946C329.401 243.061 329.196 243.149 328.971 243.21C328.749 243.272 328.509 243.302 328.254 243.302H326.842ZM327.774 238.469V242.554H328.254C328.417 242.554 328.567 242.535 328.703 242.497C328.841 242.456 328.965 242.398 329.075 242.324C329.187 242.247 329.287 242.152 329.374 242.036C329.463 241.919 329.536 241.785 329.592 241.634C329.641 241.506 329.678 241.366 329.704 241.216C329.729 241.065 329.742 240.904 329.742 240.732V240.287C329.742 240.119 329.729 239.959 329.704 239.808C329.678 239.657 329.641 239.518 329.592 239.39C329.531 239.234 329.449 239.093 329.347 238.968C329.245 238.84 329.123 238.736 328.983 238.657C328.88 238.598 328.765 238.554 328.637 238.523C328.509 238.49 328.371 238.472 328.223 238.469H327.774ZM346.081 243.302L345.352 237.717H346.207L346.591 241.147L346.618 241.365L346.656 241.135L347.193 237.717H347.899L348.455 241.15L348.493 241.381L348.52 241.147L348.908 237.717H349.767L349.03 243.302H348.16L347.592 239.885L347.554 239.62L347.511 239.885L346.951 243.302H346.081ZM358.462 240.798H356.153V242.543H358.849V243.302H355.228V237.717H358.83V238.481H356.153V240.053H358.462V240.798ZM364.602 243.302V237.717H366.389C366.66 237.717 366.915 237.748 367.153 237.809C367.39 237.868 367.596 237.959 367.77 238.082C367.944 238.205 368.08 238.362 368.177 238.554C368.277 238.743 368.326 238.968 368.326 239.229C368.324 239.387 368.296 239.536 368.242 239.674C368.191 239.809 368.117 239.929 368.02 240.034C367.95 240.111 367.872 240.179 367.786 240.237C367.701 240.294 367.603 240.345 367.49 240.391V240.399C367.656 240.442 367.798 240.506 367.916 240.59C368.034 240.672 368.132 240.766 368.211 240.87C368.293 240.983 368.355 241.108 368.395 241.246C368.439 241.382 368.461 241.525 368.461 241.676C368.463 241.942 368.416 242.176 368.319 242.378C368.222 242.58 368.087 242.749 367.916 242.884C367.745 243.022 367.54 243.127 367.302 243.199C367.067 243.268 366.811 243.302 366.535 243.302H364.602ZM365.53 240.778V242.543H366.543C366.689 242.543 366.822 242.522 366.942 242.481C367.062 242.44 367.164 242.384 367.249 242.313C367.341 242.238 367.411 242.148 367.46 242.04C367.511 241.93 367.536 241.809 367.536 241.676C367.536 241.535 367.516 241.411 367.475 241.304C367.434 241.194 367.373 241.101 367.291 241.024C367.209 240.947 367.109 240.888 366.992 240.847C366.874 240.804 366.74 240.781 366.589 240.778H365.53ZM365.53 240.076H366.409C366.559 240.074 366.697 240.053 366.823 240.015C366.951 239.977 367.058 239.92 367.145 239.846C367.224 239.78 367.287 239.699 367.333 239.605C367.379 239.51 367.402 239.401 367.402 239.279C367.402 239.148 367.38 239.036 367.337 238.941C367.296 238.844 367.237 238.765 367.16 238.703C367.073 238.626 366.965 238.572 366.834 238.538C366.704 238.502 366.559 238.483 366.401 238.481H365.53V240.076Z" fill="#0B0B0B"/>
<g filter="url(#filter0_f_57_550)">
<path d="M809 500H990V681H809V500Z" fill="url(#paint3_linear_57_550)"/>
</g>
</g>
<defs>
<filter id="filter0_f_57_550" x="472.94" y="163.94" width="853.12" height="853.12" filterUnits="userSpaceOnUse" color-interpolation-filters="sRGB">
<feFlood flood-opacity="0" result="BackgroundImageFix"/>
<feBlend mode="normal" in="SourceGraphic" in2="BackgroundImageFix" result="shape"/>
<feGaussianBlur stdDeviation="168.03" result="effect1_foregroundBlur_57_550"/>
</filter>
<linearGradient id="paint0_linear_57_550" x1="300.929" y1="199" x2="300.929" y2="228.799" gradientUnits="userSpaceOnUse">
<stop stop-color="#2F00FF"/>
<stop offset="1" stop-color="#5835F3" stop-opacity="0.68"/>
</linearGradient>
<linearGradient id="paint1_linear_57_550" x1="300.929" y1="199" x2="300.929" y2="228.799" gradientUnits="userSpaceOnUse">
<stop stop-color="#2F00FF"/>
<stop offset="1" stop-color="#5835F3" stop-opacity="0.68"/>
</linearGradient>
<linearGradient id="paint2_linear_57_550" x1="300.929" y1="199" x2="300.929" y2="228.799" gradientUnits="userSpaceOnUse">
<stop stop-color="#2F00FF"/>
<stop offset="1" stop-color="#5835F3" stop-opacity="0.68"/>
</linearGradient>
<linearGradient id="paint3_linear_57_550" x1="899.5" y1="500" x2="899.5" y2="754.223" gradientUnits="userSpaceOnUse">
<stop stop-color="#D000FF"/>
<stop offset="1" stop-color="#6800FD"/>
</linearGradient>
<clipPath id="clip0_57_550">
<rect width="1920" height="1080" fill="white"/>
</clipPath>
<clipPath id="clip1_57_550">
<rect width="135.812" height="29.7987" fill="white" transform="translate(233.022 199)"/>
</clipPath>
</defs>
</svg>
